<?xml version="1.0" encoding="UTF-8"?>
<svg id="_レイヤー_2" data-name="レイヤー 2" xmlns="http://www.w3.org/2000/svg" xmlns:xlink="http://www.w3.org/1999/xlink" viewBox="0 0 359.28 530.42">
  <defs>
    <style>
      .cls-1 {
        stroke-linejoin: bevel;
      }

      .cls-1, .cls-2 {
        fill: none;
        stroke: #000;
        stroke-linecap: round;
        stroke-width: 8px;
      }

      .cls-2 {
        stroke-linejoin: round;
      }

      .cls-3 {
        fill: #f6ddb1;
      }

      .cls-4 {
        fill: #f7eccc;
      }

      .cls-5 {
        fill: #fff;
      }

      .cls-6 {
        fill: url(#_名称未設定グラデーション_649);
      }
    </style>
    <linearGradient id="_名称未設定グラデーション_649" data-name="名称未設定グラデーション 649" x1="55.13" y1="85.68" x2="316.75" y2="347.3" gradientUnits="userSpaceOnUse">
      <stop offset=".18" stop-color="#dfcdff"/>
      <stop offset=".36" stop-color="#d2d1f5"/>
      <stop offset=".68" stop-color="#93ffee"/>
    </linearGradient>
  </defs>
  <g id="_レイヤー_2-2" data-name="レイヤー 2">
    <g>
      <path class="cls-6" d="M276.08,370.81H79.8c-17,0-30.77-13.78-30.77-30.77V109.6C49.03,49.07,98.1,0,158.63,0h38.63c60.53,0,109.6,49.07,109.6,109.6v230.44c0,17-13.78,30.77-30.77,30.77Z"/>
      <path class="cls-4" d="M182.09,530.42h-8.3c-13.64,0-24.7-11.06-24.7-24.7v-134.91h57.71v134.91c0,13.64-11.06,24.7-24.7,24.7Z"/>
      <path class="cls-5" d="M69.76,116.55s-.08,0-.13,0c-4.69-.07-8.44-3.93-8.38-8.62.8-55.36,44.63-81.82,46.5-82.92,4.04-2.38,9.26-1.04,11.64,3.01,2.38,4.04,1.04,9.24-2.99,11.63-1.55.93-37.49,22.95-38.15,68.54-.07,4.65-3.86,8.38-8.5,8.38Z"/>
      <circle class="cls-5" cx="69.76" cy="137.35" r="8.5"/>
      <polygon class="cls-3" points="206.79 425.64 149.09 386.64 149.09 370.81 206.79 370.81 206.79 425.64"/>
      <path class="cls-1" d="M107.57,150.91c13.54,26.98,44.37,44.23,74.44,41.66,30.08-2.57,57.53-24.81,66.29-53.7"/>
      <path d="M133.72,118.73c-.25-4.78,3.14-10.19,8.5-9.2,2.94.54,5.18,2.86,6.17,5.68,1.41,4.06-.61,11.65-2.4,14.74-.36.61-.91,1.1-1.57,1.36-2.01.77-3.98.33-5.54-.91-2.24-1.79-4.94-7.63-5.16-11.67Z"/>
      <path d="M221.35,118.73c.25-4.78-3.14-10.19-8.5-9.2-2.94.54-5.18,2.86-6.17,5.68-1.41,4.06.61,11.65,2.4,14.74.36.61.91,1.1,1.57,1.36,2.01.77,3.98.33,5.54-.91,2.24-1.79,4.94-7.63,5.16-11.67Z"/>
      <path class="cls-2" d="M118.63,78.1c13.4.47,26.41,7.55,34.07,18.55"/>
      <path class="cls-1" d="M48.09,238.51c-5.89,10.21-11.77,20.42-17.66,30.63-15.81-12.6-25.73-32.3-26.44-52.5"/>
      <path class="cls-1" d="M308.6,201.01c20.13,10.14,42.7,35.45,46.68,57.63"/>
    </g>
  </g>
</svg>