<?xml version="1.0" encoding="UTF-8"?>
<svg id="_レイヤー_2" data-name="レイヤー 2" xmlns="http://www.w3.org/2000/svg" xmlns:xlink="http://www.w3.org/1999/xlink" viewBox="0 0 351.98 530.42">
  <defs>
    <style>
      .cls-1 {
        stroke-linejoin: bevel;
      }

      .cls-1, .cls-2 {
        fill: none;
        stroke: #000;
        stroke-linecap: round;
        stroke-width: 8px;
      }

      .cls-2 {
        stroke-linejoin: round;
      }

      .cls-3 {
        fill: #f6ddb1;
      }

      .cls-4 {
        fill: #f7eccc;
      }

      .cls-5 {
        fill: #fff;
      }

      .cls-6 {
        fill: url(#_名称未設定グラデーション_682);
      }
    </style>
    <linearGradient id="_名称未設定グラデーション_682" data-name="名称未設定グラデーション 682" x1="47.83" y1="85.68" x2="309.45" y2="347.3" gradientUnits="userSpaceOnUse">
      <stop offset=".18" stop-color="#d3ffc6"/>
      <stop offset=".29" stop-color="#e5efd2"/>
      <stop offset=".36" stop-color="#f5e3de"/>
      <stop offset=".68" stop-color="#ffa1ed"/>
    </linearGradient>
  </defs>
  <g id="_レイヤー_2-2" data-name="レイヤー 2">
    <g>
      <path class="cls-6" d="M268.77,370.81H72.5c-17,0-30.77-13.78-30.77-30.77V109.6C41.73,49.07,90.79,0,151.32,0h38.63c60.53,0,109.6,49.07,109.6,109.6v230.44c0,17-13.78,30.77-30.77,30.77Z"/>
      <path class="cls-4" d="M174.79,530.42h-8.3c-13.64,0-24.7-11.06-24.7-24.7v-134.91h57.71v134.91c0,13.64-11.06,24.7-24.7,24.7Z"/>
      <path class="cls-5" d="M62.46,116.55s-.08,0-.13,0c-4.69-.07-8.44-3.93-8.38-8.62.8-55.36,44.63-81.82,46.5-82.92,4.04-2.38,9.26-1.04,11.64,3.01,2.38,4.04,1.04,9.24-2.99,11.63-1.55.93-37.49,22.95-38.15,68.54-.07,4.65-3.86,8.38-8.5,8.38Z"/>
      <circle class="cls-5" cx="62.46" cy="137.35" r="8.5"/>
      <polygon class="cls-3" points="199.49 425.64 141.78 386.64 141.78 370.81 199.49 370.81 199.49 425.64"/>
      <path d="M126.74,114.88c.17-4.78,4.03-9.87,9.28-8.41,2.88.8,4.91,3.3,5.64,6.21,1.05,4.17-1.63,11.55-3.69,14.47-.41.58-1,1.02-1.68,1.21-2.07.59-4-.02-5.44-1.4-2.07-1.98-4.25-8.04-4.11-12.08Z"/>
      <path d="M214.03,122.6c.67-4.74-2.23-10.42-7.66-9.91-2.98.28-5.42,2.39-6.64,5.12-1.76,3.92-.42,11.65,1.09,14.9.3.64.81,1.18,1.44,1.49,1.93.95,3.94.68,5.6-.42,2.39-1.59,5.6-7.17,6.17-11.17Z"/>
      <path class="cls-1" d="M304.36,213.71c18.47,10.35,33.82,26.17,43.62,44.93"/>
      <path class="cls-2" d="M169.43,168.04l-28.16-8.61c-4.45,5.25-4.11,13.91.75,18.79s13.51,5.28,18.79.86c-5.04,2.9-9.57,7.31-10.91,12.97-1.34,5.65,1.5,12.48,7.07,14.14,5.57,1.67,12.29-4.14,10.31-9.61"/>
      <path class="cls-2" d="M37.44,215.04c-16.2,18.72-27.78,41.41-33.44,65.51"/>
    </g>
  </g>
</svg>