<?xml version="1.0" encoding="UTF-8"?>
<svg id="_レイヤー_2" data-name="レイヤー 2" xmlns="http://www.w3.org/2000/svg" xmlns:xlink="http://www.w3.org/1999/xlink" viewBox="0 0 303.24 526.65">
  <defs>
    <style>
      .cls-1 {
        fill: none;
        stroke: #000;
        stroke-linecap: round;
        stroke-linejoin: bevel;
        stroke-width: 8px;
      }

      .cls-2 {
        fill: #f6ddb1;
      }

      .cls-3 {
        fill: #f7eccc;
      }

      .cls-4 {
        fill: #eec6ff;
      }

      .cls-5 {
        fill: #fff;
      }

      .cls-6 {
        fill: url(#_名称未設定グラデーション_43);
      }
    </style>
    <linearGradient id="_名称未設定グラデーション_43" data-name="名称未設定グラデーション 43" x1="8.84" y1="92.23" x2="281.99" y2="365.38" gradientUnits="userSpaceOnUse">
      <stop offset=".18" stop-color="#94ceff"/>
      <stop offset=".3" stop-color="#a6ccff"/>
      <stop offset=".36" stop-color="#b3cbff"/>
      <stop offset=".63" stop-color="#e5c6ff"/>
      <stop offset=".68" stop-color="#efc6ff"/>
    </linearGradient>
  </defs>
  <g id="_レイヤー_2-2" data-name="レイヤー 2">
    <g>
      <path class="cls-3" d="M220.17,524.38l-8.12,1.73c-13.34,2.84-26.46-5.68-29.3-19.02l-28.08-131.95,56.44-12.01,28.08,131.95c2.84,13.34-5.68,26.46-19.02,29.3Z"/>
      <polygon class="cls-2" points="222.52 416.76 157.96 390.63 154.66 375.13 211.1 363.12 222.52 416.76"/>
      <path class="cls-6" d="M278.87,348.7l-29.89,6.36c.36.91.55,1.91.55,2.95,0,3.44-2.13,6.38-5.15,7.58v9.72c1.91,5.42,4.03,12.04,4.03,14.73,0,4.9-3.14,8.87-7.03,8.87s-7.03-3.97-7.03-8.87c0-2.69,2.12-9.31,4.03-14.73v-9.72c-2.9-1.15-4.98-3.91-5.14-7.18l-12.55,2.67c1.72,2.94,2.69,6.35,2.69,9.99,0,11.02-8.93,19.96-19.95,19.96s-19.96-8.94-19.96-19.96c0-.71.04-1.4.11-2.09l-49.37,10.5c.02.3.03.6.03.91,0,8.79-7.13,15.93-15.93,15.93-6.81,0-12.62-4.28-14.9-10.29l-13.18,2.81c.03.27.04.54.04.81,0,4.06-2.62,7.52-6.27,8.76v12.91h-.26c2.03,6.11,4.43,14.03,4.43,17.15,0,5.38-3.21,9.75-7.17,9.75s-7.17-4.37-7.17-9.75c0-3.12,2.4-11.04,4.43-17.15h-.26v-12.91c-3.64-1.24-6.26-4.7-6.26-8.76,0-.23.01-.46.03-.69-10.46-3.09-18.95-11.68-21.38-23.1L2.42,140.47C-10.18,81.27,27.6,23.06,86.81,10.46L124.59,2.42c59.2-12.6,117.4,25.18,130,84.38l47.97,225.39c3.54,16.63-7.07,32.97-23.69,36.51Z"/>
      <path class="cls-5" d="M24.15,142.96s-.08.02-.12.03c-4.61.91-9.08-2.08-9.99-6.69C3.3,81.98,40.67,46.97,42.26,45.51c3.46-3.17,8.84-2.94,12.01.52,3.17,3.45,2.94,8.82-.5,11.99-1.32,1.23-31.89,30.25-23.05,74.98.9,4.56-2.03,9-6.57,9.96Z"/>
      <circle class="cls-5" cx="28.48" cy="163.3" r="8.5"/>
      <path class="cls-1" d="M26.74,273.55c20.64-15.71,38.94-34.5,54.09-55.55"/>
      <path class="cls-1" d="M194.64,199.78c27.08,20.64,61.65,31.23,95.65,29.3"/>
      <path class="cls-1" d="M58.1,135.48c4.5,10.67,17.84,16.66,28.8,12.94s17.91-16.58,15-27.79"/>
      <path class="cls-1" d="M149.4,114.46c2.32,11.7,15.68,19.9,27.17,16.67,11.49-3.23,18.6-17.2,14.47-28.4"/>
      <path class="cls-1" d="M108.01,186.92l2.06-12.67c1.67-1.37,4.12.3,5.34,2.08s2.56,4.02,4.71,4c4.15-.04,3.89-7.66,7.88-8.83,4.4-1.29,7.06,6.67,11.61,6.09,4.55-.58,3.75-7.88,7.04-11.06,2.15-2.08,5.75-1.88,8.33-.37s4.35,4.05,6.05,6.5"/>
      <path class="cls-1" d="M199.48,127.99c-3.35,7.43-6.77,15.34-5.75,23.43s8.41,15.95,16.39,14.32c8.57-1.75,11.95-13.21,8.57-21.27-3.38-8.07-11.06-13.36-18.35-18.19"/>
      <circle class="cls-4" cx="120.45" cy="500.76" r="9.45"/>
      <circle class="cls-4" cx="102.08" cy="454.85" r="13.28"/>
    </g>
  </g>
</svg>