<?xml version="1.0" encoding="UTF-8"?>
<svg id="_レイヤー_2" data-name="レイヤー 2" xmlns="http://www.w3.org/2000/svg" xmlns:xlink="http://www.w3.org/1999/xlink" viewBox="0 0 359.98 530.42">
  <defs>
    <style>
      .cls-1 {
        stroke-linejoin: bevel;
      }

      .cls-1, .cls-2 {
        fill: none;
      }

      .cls-1, .cls-2, .cls-3 {
        stroke: #000;
        stroke-linecap: round;
        stroke-width: 8px;
      }

      .cls-2, .cls-3 {
        stroke-linejoin: round;
      }

      .cls-4 {
        fill: #f6ddb1;
      }

      .cls-5 {
        fill: #f7eccc;
      }

      .cls-6 {
        fill: url(#_名称未設定グラデーション_2);
      }

      .cls-3, .cls-7 {
        fill: #fff;
      }
    </style>
    <linearGradient id="_名称未設定グラデーション_2" data-name="名称未設定グラデーション 2" x1="59.6" y1="85.68" x2="321.23" y2="347.3" gradientUnits="userSpaceOnUse">
      <stop offset=".18" stop-color="#ffd7c6"/>
      <stop offset=".36" stop-color="#f5cdca"/>
      <stop offset=".68" stop-color="#ee8cff"/>
    </linearGradient>
  </defs>
  <g id="_レイヤー_2-2" data-name="レイヤー 2">
    <g>
      <path class="cls-6" d="M280.55,370.81H84.28c-17,0-30.77-13.78-30.77-30.77V109.6C53.5,49.07,102.57,0,163.1,0h38.63c60.53,0,109.6,49.07,109.6,109.6v230.44c0,17-13.78,30.77-30.77,30.77Z"/>
      <path class="cls-5" d="M186.56,530.42h-8.3c-13.64,0-24.7-11.06-24.7-24.7v-134.91h57.71v134.91c0,13.64-11.06,24.7-24.7,24.7Z"/>
      <path class="cls-7" d="M74.24,116.55s-.08,0-.13,0c-4.69-.07-8.44-3.93-8.38-8.62.8-55.36,44.63-81.82,46.5-82.92,4.04-2.38,9.26-1.04,11.64,3.01,2.38,4.04,1.04,9.24-2.99,11.63-1.55.93-37.49,22.95-38.15,68.54-.07,4.65-3.86,8.38-8.5,8.38Z"/>
      <circle class="cls-7" cx="74.23" cy="137.35" r="8.5"/>
      <polygon class="cls-4" points="211.26 425.64 153.56 386.64 153.56 370.81 211.26 370.81 211.26 425.64"/>
      <path d="M138.19,118.73c-.25-4.78,3.14-10.19,8.5-9.2,2.94.54,5.18,2.86,6.17,5.68,1.41,4.06-.61,11.65-2.4,14.74-.36.61-.91,1.1-1.57,1.36-2.01.77-3.98.33-5.54-.91-2.24-1.79-4.94-7.63-5.16-11.67Z"/>
      <path d="M225.82,118.73c.25-4.78-3.14-10.19-8.5-9.2-2.94.54-5.18,2.86-6.17,5.68-1.41,4.06.61,11.65,2.4,14.74.36.61.91,1.1,1.57,1.36,2.01.77,3.98.33,5.54-.91,2.24-1.79,4.94-7.63,5.16-11.67Z"/>
      <path class="cls-3" d="M164.36,152.78c12.48,2.16,25.61.46,37.13-4.81.23,7.6.42,15.44-2.34,22.52-2.76,7.08-9.27,13.28-16.87,13.23-6.92-.04-12.97-5.23-16.09-11.4s-3.88-13.23-1.83-19.55Z"/>
      <path class="cls-1" d="M49.67,199.59c-21.01-13.36-37.36-33.9-45.67-57.37"/>
      <path class="cls-2" d="M315.16,196.35c19.69-17.88,33.78-41.85,40.82-67.51l-.7,2.25"/>
    </g>
  </g>
</svg>