<?xml version="1.0" encoding="UTF-8"?>
<svg id="_レイヤー_2" data-name="レイヤー 2" xmlns="http://www.w3.org/2000/svg" xmlns:xlink="http://www.w3.org/1999/xlink" viewBox="0 0 1619.03 317.79">
  <defs>
    <style>
      .cls-1 {
        fill: url(#_名称未設定グラデーション_43-3);
      }

      .cls-2 {
        fill: url(#_名称未設定グラデーション_43-2);
      }

      .cls-3 {
        fill: url(#_名称未設定グラデーション_43-5);
      }

      .cls-4 {
        fill: url(#_名称未設定グラデーション_43-4);
      }

      .cls-5 {
        fill: url(#_名称未設定グラデーション_43-6);
      }

      .cls-6 {
        fill: url(#_名称未設定グラデーション_23-2);
      }

      .cls-7 {
        fill: url(#_名称未設定グラデーション_23-6);
      }

      .cls-8 {
        fill: url(#_名称未設定グラデーション_23-3);
      }

      .cls-9 {
        fill: url(#_名称未設定グラデーション_23-5);
      }

      .cls-10 {
        fill: url(#_名称未設定グラデーション_23-7);
      }

      .cls-11 {
        fill: url(#_名称未設定グラデーション_23-4);
      }

      .cls-12 {
        fill: #ff8d8a;
      }

      .cls-13 {
        fill: url(#_名称未設定グラデーション_43);
      }

      .cls-14 {
        fill: url(#_名称未設定グラデーション_23);
      }
    </style>
    <linearGradient id="_名称未設定グラデーション_43" data-name="名称未設定グラデーション 43" x1="-24.03" y1="189.46" x2="731.47" y2="189.46" gradientUnits="userSpaceOnUse">
      <stop offset=".18" stop-color="#94ceff"/>
      <stop offset=".3" stop-color="#a6ccff"/>
      <stop offset=".36" stop-color="#b3cbff"/>
      <stop offset=".63" stop-color="#e5c6ff"/>
      <stop offset=".68" stop-color="#efc6ff"/>
    </linearGradient>
    <linearGradient id="_名称未設定グラデーション_43-2" data-name="名称未設定グラデーション 43" x1="-24.03" y1="187.46" x2="731.47" y2="187.46" xlink:href="#_名称未設定グラデーション_43"/>
    <linearGradient id="_名称未設定グラデーション_43-3" data-name="名称未設定グラデーション 43" x1="-24.03" y1="174.35" x2="731.47" y2="174.35" xlink:href="#_名称未設定グラデーション_43"/>
    <linearGradient id="_名称未設定グラデーション_43-4" data-name="名称未設定グラデーション 43" x1="-24.03" y1="182.12" x2="731.47" y2="182.12" xlink:href="#_名称未設定グラデーション_43"/>
    <linearGradient id="_名称未設定グラデーション_43-5" data-name="名称未設定グラデーション 43" x1="-24.03" y1="176.61" x2="731.47" y2="176.61" xlink:href="#_名称未設定グラデーション_43"/>
    <linearGradient id="_名称未設定グラデーション_43-6" data-name="名称未設定グラデーション 43" x1="-24.03" y1="192.31" x2="731.47" y2="192.31" xlink:href="#_名称未設定グラデーション_43"/>
    <linearGradient id="_名称未設定グラデーション_23" data-name="名称未設定グラデーション 23" x1="762.53" y1="173.04" x2="1632.09" y2="228.29" gradientUnits="userSpaceOnUse">
      <stop offset=".18" stop-color="#ffe399"/>
      <stop offset=".29" stop-color="#f9deab"/>
      <stop offset=".36" stop-color="#f5dbba"/>
      <stop offset=".66" stop-color="#fe918b"/>
      <stop offset=".68" stop-color="#ff8d89"/>
    </linearGradient>
    <linearGradient id="_名称未設定グラデーション_23-2" data-name="名称未設定グラデーション 23" x1="762.59" y1="172.08" x2="1632.15" y2="227.34" xlink:href="#_名称未設定グラデーション_23"/>
    <linearGradient id="_名称未設定グラデーション_23-3" data-name="名称未設定グラデーション 23" x1="762.01" y1="181.21" x2="1631.57" y2="236.47" xlink:href="#_名称未設定グラデーション_23"/>
    <linearGradient id="_名称未設定グラデーション_23-4" data-name="名称未設定グラデーション 23" x1="763.01" y1="165.35" x2="1632.58" y2="220.61" xlink:href="#_名称未設定グラデーション_23"/>
    <linearGradient id="_名称未設定グラデーション_23-5" data-name="名称未設定グラデーション 23" x1="764.2" y1="146.77" x2="1633.76" y2="202.02" xlink:href="#_名称未設定グラデーション_23"/>
    <linearGradient id="_名称未設定グラデーション_23-6" data-name="名称未設定グラデーション 23" x1="764.53" y1="141.52" x2="1634.09" y2="196.78" xlink:href="#_名称未設定グラデーション_23"/>
    <linearGradient id="_名称未設定グラデーション_23-7" data-name="名称未設定グラデーション 23" x1="761.03" y1="196.52" x2="1630.6" y2="251.77" xlink:href="#_名称未設定グラデーション_23"/>
  </defs>
  <g id="_レイヤー_1-2" data-name="レイヤー 1">
    <g>
      <path class="cls-13" d="M2.31,107.99c1.45-1.97,3.15-3.35,5.08-4.12l2.54-1.01c3.31-1.17,5.73-1.44,7.25-.78s3.72,2.69,6.61,6.08c2.89,3.4,5.06,6.56,6.5,9.49.65,1.28,2.72,5.08,6.2,11.39,2.69,4.67,5.29,10.14,7.79,16.43,1.15,2.9,1.95,5.1,2.41,6.6l1.94,4.89c.91,2.3,1.81,4.39,2.7,6.27.19.48.47,1.11.85,1.87.37.76.63,1.32.77,1.69.62,1.57.96,2.77,1.01,3.59.02,1.11.37,1.81,1.05,2.1.29.03.77.88,1.44,2.57.91,2.3,1.62,4.26,2.12,5.87,1.49,4.45,2.93,8.42,4.32,11.93l1.51,3.81c2.07,5.2,3.12,8.56,3.16,10.08-.03,1.69,1.59,7.35,4.85,16.96,1.53,4.57,2.28,7.14,2.23,7.72.04.82.26,1.72.65,2.68.29.72.75,1.8,1.39,3.23.64,1.43,1.08,2.44,1.32,3.05.53,1.33.78,2.14.76,2.43-.05.58,1.03,4.35,3.23,11.31,1.85,5.01,2.87,8.27,3.06,9.81.19,1.53-.14,3.17-.99,4.91-1.34,2.63-4.24,4.83-8.71,6.61-5.08,2.02-8.95,2.3-11.63.84-3.52-1.82-10.1-13.62-19.73-35.4-2.79-6.31-5.97-12.74-9.55-19.29-.1-.24-.51-1.09-1.23-2.56-.72-1.46-1.26-2.47-1.62-3.03-.82-1.35-1.63-3.06-2.45-5.11-1.06-2.66-2.05-5.34-2.99-8.05l-1.22-3.08c-1.15-2.9-1.9-4.42-2.24-4.57-.46-.1-.93-.75-1.41-1.96-.48-1.21-.53-2.03-.14-2.46.51-.48.04-2.18-1.4-5.11l-.65-1.63c-1.63-4.11-3.64-9.68-6.01-16.71-2.37-7.03-3.54-10.84-3.49-11.42.1-1.16-1.89-7.92-5.97-20.3-.62-2.27-.86-3.57-.72-3.91.22-.51-.03-1.67-.75-3.48-.67-1.69-1.25-3.84-1.72-6.45-.95-5.92-.33-10.5,1.88-13.76Z"/>
      <path class="cls-2" d="M110.7,164.73c-.11-.9.23-3.53,1.01-7.88.78-4.35,1.13-6.92,1.03-7.69-.14-1.16.54-3.9,2.05-8.21,1.51-4.31,2.97-7.6,4.4-9.87,1.3-2.25,1.92-3.57,1.88-3.96-.08-.64.93-2.34,3.02-5.08,2.09-2.74,4.3-5.3,6.63-7.68,3.74-3.73,8.42-6.72,14.04-8.97,1.87-.75,4.23-1.3,7.07-1.64,7.36-.89,13.85-.24,19.49,1.96,3.43,1.29,6.72,3.57,9.87,6.86,3.15,3.29,5.24,6.5,6.28,9.65.49,1.91.27,3.31-.67,4.21-1.07.92-2.06,1.43-2.96,1.54-1.68.2-4.84-1.57-9.49-5.33-7.24-5.67-12.28-8.33-15.12-7.99-.52.06-1.5,1.16-2.94,3.3-1.44,2.14-2.13,3.53-2.05,4.18.03.26-.59,1.64-1.85,4.15-1.27,2.51-1.87,4.03-1.81,4.54.13,1.03-.14,2.11-.79,3.24-.31.69-.72,2.48-1.22,5.35-.5,2.88-.85,4.59-1.05,5.14-.2.55-.35,2.57-.44,6.05-.1,3.48-.31,5.51-.64,6.07-.54.98-.66,2.64-.38,4.96.13,1.03.05,5.24-.24,12.6-.54,6.35-.72,11.88-.54,16.57-.03,4.07.59,11.32,1.86,21.78.78,6.46,1.33,9.86,1.63,10.22.58.45,1.07,2.36,1.48,5.71,1.37,8.09,3.17,14.22,5.38,18.41.64.97,1.3,2.37,1.98,4.18.68,1.82,1.48,3.26,2.39,4.33.45.47.92,1.07,1.4,1.8s.88,1.3,1.19,1.72c.31.42.76.86,1.34,1.31.58.45,1.22.9,1.93,1.34l2.12,1.31,4.54-3.11c3.52-2.26,6.01-4.46,7.45-6.6,8.57-11.39,16.11-30.77,22.61-58.15,4.22-17.02,6.46-26.06,6.73-27.15.47-1.5,1.36-2.26,2.67-2.29.92.02,1.5.21,1.74.57.24.36.5,1.71.78,4.03.74,6.07-2.89,24.26-10.86,54.57-2.36,8.67-5.37,16.7-9.06,24.09-3.69,7.39-7.2,12.47-10.53,15.23-4.77,3.85-10.77,6.22-18,7.1-10.97,1.33-20.47-.79-28.48-6.37-3.15-2.24-7.08-6.24-11.78-12.03-4.7-5.78-7.17-9.71-7.42-11.77-.16-1.29-.72-2.66-1.68-4.12-3.3-5.62-5.9-16.25-7.8-31.87-.91-7.49-1.27-15.04-1.08-22.66.19-7.62.9-12.29,2.13-14.01.65-1.13.9-2.33.74-3.63Z"/>
      <path class="cls-1" d="M267.38,108.66c5.4-.85,11.26-1.66,17.59-2.42,18.98-2.3,31.47-3.53,37.47-3.69,5.62-.11,8.49.36,8.62,1.4.03.28-.12.59-.48.92-.82.77-6.19,1.86-16.11,3.25-34.46,5.34-52.04,8.33-52.75,9-.12.11.21.65.98,1.61.63.88,1.16,2.28,1.59,4.2.43,1.92.91,4.23,1.43,6.95.53,2.72.82,4.36.89,4.93,1.01,5.06,1.87,10.53,2.58,16.39l1.43,11.78,7.71-1.22c11.83-1.82,20.51-3.11,26.05-3.88,3.99-.58,8.37-1.16,13.15-1.74,3.87-.47,6.54-.6,8.01-.4,2.02.43,3.06.92,3.13,1.49.2,1.61-6.24,3.59-19.32,5.95-24.23,4.38-36.52,6.74-36.87,7.07-.82.77-.74,5.27.26,13.5.06.47.16,1.08.32,1.83.16.75.25,1.26.29,1.55.54,4.45,1.42,14.95,2.65,31.5l.41,4.99,4.47-.4,3.87-.47c3.36-.41,11.22-1.46,23.59-3.15,5.53-.86,11.32-1.66,17.39-2.4,4.77-.58,8.16-.75,10.16-.51,4.62.3,7.01,1.07,7.16,2.3.05.38-.42.87-1.39,1.47-2.34,1.24-5.69,2.27-10.04,3.09-4.36.82-13.43,2.11-27.23,3.88-18.07,2.19-27.29,3.46-27.64,3.79-.25.13-.2,1.56.13,4.3.22,1.8.23,2.97.03,3.52-.2.55-.83,1.28-1.9,2.17-2.98,2.47-7.05,4.02-12.21,4.65-1.03.13-2.6.22-4.68.28-3.79.08-6.4-.16-7.85-.7-1.44-.55-2.66-1.96-3.66-4.24-1-2.28-1.84-6.21-2.51-11.79-.6-4.92-1.03-8.99-1.29-12.23-1.65-15.73-2.58-24.46-2.78-26.16-.1-.85-.29-2.12-.56-3.82-.27-1.7-.45-2.92-.54-3.68-.6-4.92-1.23-11.73-1.89-20.43-.66-8.7-1.07-14.2-1.22-16.48-.5-6.27-.58-10.15-.23-11.64.08-.39.02-1.44-.19-3.15-.16-1.32-.16-3.48,0-6.48.16-2.99.41-4.71.75-5.13.25-.12.55-.88.9-2.27.14-.98.81-1.92,2.01-2.84,2.68-1.67,12.11-3.82,28.3-6.46Z"/>
      <path class="cls-4" d="M381.67,101.09c.33-.25,1.04-.57,2.15-.96,4.05-1.41,7.25-1.91,9.6-1.49,3.83.73,7.35,5.08,10.55,13.05.93,2.29,1.87,4.1,2.82,5.42.94,1.32,1.65,2.66,2.12,4.01.09.25.2.69.36,1.32.15.64.32,1.2.49,1.69l.84,2.39c.69,1.97,1.32,3.4,1.91,4.29.83.81,1.35.91,1.55.29l.7-2.72c.62-2.56.89-3.96.81-4.21-.25-.33.81-2.79,3.2-7.42,2.38-4.62,4.4-8.11,6.05-10.48,4.88-6.93,10.48-12.19,16.81-15.78,3.51-1.77,5.45-2.73,5.82-2.86.98-.34,3.11-.74,6.4-1.2,17.28-2.17,30.2,7.23,38.76,28.21l.64,1.84c3.73,10.68,5.57,20.92,5.55,30.71,0,11.44-2.29,20.98-6.85,28.63-4.56,7.65-11.02,12.93-19.37,15.85-1.97.69-4.06,1.21-6.27,1.57-10.46,2-19.95.07-28.46-5.77-3.07-2.09-4.79-3.08-5.16-2.95-.08.17-.06.33.07.49.12.16.42.51.88,1.04.96,1.18,1.39,2.41,1.28,3.68.02,1.65.66,4.25,1.9,7.81l2.76,7.92c.18,1.31,1.52,4.36,4.01,9.14,1.4,2.82,2.27,4.72,2.61,5.7.34.98.39,1.72.15,2.22-.65.92.62,6.33,3.8,16.23,1.38,4.34,2.55,9.1,3.53,14.26.13.37.26.94.39,1.72.13.78.27,1.46.4,2.03.13.57.26,1.04.39,1.41.13.37.28.7.45.98.17.29.3.55.38.8.34.98.43,2.12.26,3.42s-.56,2.05-1.17,2.27c-.62.21-1.44,1.19-2.49,2.93-1.93,3.15-5.54,5.65-10.81,7.49-.86.3-2.56.75-5.1,1.37-6.93,1.45-11.61.47-14.04-2.95-2.23-3.22-6.88-13.99-13.96-32.32-1.2-3.44-2.26-5.68-3.18-6.74-.21-.2-.4-.55-.57-1.04-.13-.37-.22-1.02-.27-1.97-.05-.94-.17-1.66-.34-2.15-.21-.61-.43-1.02-.63-1.23-.88-.93-1.46-2.59-1.73-4.97-.09-.66-.35-1.6-.78-2.83-.3-.86-.83-2.19-1.6-3.99-.77-1.8-1.32-3.19-1.66-4.17-.6-1.72-.91-2.99-.92-3.81-.08-2.59-1.47-8.16-4.18-16.72-2.75-8.68-4.01-13.27-3.77-13.77.32-.66-.27-3.14-1.77-7.44-2.92-8.76-4.51-15.09-4.77-19-.2-2.13-.46-3.69-.81-4.68-.64-1.84-1.37-5-2.17-9.47-.8-4.47-1.34-7.28-1.6-8.43-.87-3.69-1.2-6.19-.97-7.51.15-1.15-.03-2.47-.55-3.94-.51-1.47-.61-3.92-.29-7.34.09-2.51.46-4.29,1.13-5.35.66-1.06,2.23-2.57,4.72-4.54ZM453.57,95.22c-2.26-.17-3.83-.11-4.69.19-2.33.81-5.24,3.55-8.71,8.2-2.22,3.12-4.95,8.41-8.2,15.88-3.25,7.47-4.66,11.82-4.23,13.04.13.37.04,1.71-.25,4.01-.5,2.52-.97,5.92-1.4,10.2-.44,4.28-.56,6.67-.39,7.16.26.74.27,1.35.03,1.85-.32.66-.41,2-.25,4.01-.07.99.03,1.85.28,2.59.3.86,1.18,2,2.64,3.42,2.34,2.36,5.8,5.18,10.39,8.46,4.59,3.29,8.54,5.73,11.85,7.33,6.96,3.36,12.83,4.2,17.62,2.53,2.09-.73,3.84-1.82,5.26-3.28,1.22-1.25,2.46-3.2,3.74-5.85,1.28-2.65,1.79-4.34,1.53-5.08-.21-.61-.28-1-.2-1.17.85-1.12,1.65-6.91,2.41-17.37.57-9.01-1.09-19.11-4.99-30.28l-.51-1.47c-3.2-8.39-5.67-13.1-7.41-14.15-.5-.24-.92-.85-1.26-1.83-.47-1.35-2.34-3.04-5.59-5.07-3.26-2.03-5.81-3.14-7.66-3.32Z"/>
      <path class="cls-3" d="M517.46,218.06c0-.62-.21-1.19-.62-1.7-.41-.52-.62-1.03-.62-1.55,0-.62-.31-1.45-.93-2.48-.31-.62-.7-2.07-1.16-4.34-.46-2.27-.91-3.72-1.32-4.34-.62-1.03-.93-2.38-.93-4.03,0-1.03-.18-1.88-.54-2.56-.36-.67-.54-1.32-.54-1.94v-.93c.21-1.34.1-2.22-.31-2.63-.52-.52-.77-3.41-.77-8.68,0-14.15.72-22.78,2.17-25.88.62-1.45,1.6-4.54,2.94-9.3,1.34-4.75,2.63-7.95,3.87-9.61.83-1.24,1.24-2.12,1.24-2.63,0-.72.57-1.96,1.7-3.72,1.86-2.89,3.05-4.75,3.56-5.58,2.48-4.44,6.35-8.81,11.62-13.09,5.27-4.29,9.86-6.84,13.79-7.67,1.65-.31,4.13-.46,7.44-.46,5.17.21,7.9,1.55,8.21,4.03.1.62.28.98.54,1.08.26.1.9.1,1.94,0,.41-.1,1.14-.26,2.17-.46,1.03-.21,1.7-.31,2.01-.31.1,0,.31-.02.62-.08.31-.05.57-.08.77-.08,3.92,0,7.75.98,11.47,2.94,3.51,1.86,7.05,5.06,10.62,9.61,3.56,4.55,6.22,9.3,7.98,14.26,1.24,3.41,2.32,7.44,3.25,12.09.72,4.13,1.08,10.28,1.08,18.44s-.36,14.41-1.08,18.75c-1.96,10.44-5.42,21.8-10.38,34.09-1.34,3-2.27,4.86-2.79,5.58-.62.62-.93,1.08-.93,1.39,0,.52-1.32,2.38-3.95,5.58-2.63,3.2-4.78,5.63-6.43,7.28-4.34,4.13-9.87,6.92-16.58,8.37-2.58.52-4.44.77-5.58.77s-2.94-.16-5.42-.47c-11.99-1.45-21.18-6.25-27.58-14.41-.52-.62-2.01-2.38-4.49-5.27-1.14-1.34-1.7-2.17-1.7-2.48s-.72-1.55-2.17-3.72c-1.45-2.17-2.17-3.46-2.17-3.87ZM580.22,118.89c-2.07-1.14-3.31-1.7-3.72-1.7-.52,0-1.29.96-2.32,2.87-1.03,1.91-1.65,3.54-1.86,4.88-.31,1.34-.57,3.41-.77,6.2-.21,2.79-1.45,6.46-3.72,11-1.03,2.07-2.12,3.46-3.25,4.18-1.14.72-2.84,1.08-5.11,1.08-2.79,0-4.7-.77-5.73-2.32-1.03-1.55-1.76-4.75-2.17-9.61-.31-3-.57-4.49-.77-4.49l-.15.15c-2.38,4.75-3.67,8.21-3.87,10.38-.21,2.07-.67,3.72-1.39,4.96-.52.93-.83,1.58-.93,1.94-.1.36-.18.93-.23,1.7-.05.77-.23,1.78-.54,3.02-.52,1.76-1.19,5.53-2.01,11.31-.21,2.07-.31,6.1-.31,12.09,0,16.32.88,26.03,2.63,29.13.21.41.52,1.76.93,4.03.21,2.17,1.11,5.11,2.71,8.83,1.6,3.72,2.45,5.73,2.56,6.04.72,2.48,2.66,5.32,5.81,8.52,3.15,3.2,5.5,4.8,7.05,4.8,1.86,0,4.57-1.47,8.14-4.42,3.56-2.94,6.33-5.97,8.29-9.07,2.89-4.54,5.22-8.57,6.97-12.09,8.06-15.6,12.09-32.39,12.09-50.36,0-7.85-.72-14.36-2.17-19.53-3.31-11.36-8.68-19.22-16.12-23.55Z"/>
      <path class="cls-5" d="M657.35,118.59c.34-.02.97.1,1.9.35,3.41.93,5.81,2.08,7.21,3.46,2.26,2.28,2.62,6.87,1.07,13.77-.43,1.99-.64,3.65-.61,4.99.02,1.34-.12,2.57-.43,3.71-.06.21-.18.56-.37,1.06-.19.5-.34.96-.46,1.37l-.55,2.01c-.45,1.65-.69,2.92-.7,3.8.19.94.49,1.24.92.92l1.75-1.52c1.61-1.44,2.45-2.27,2.5-2.48-.02-.34,1.85-1.52,5.62-3.54,3.77-2.02,6.76-3.45,8.99-4.29,6.54-2.43,12.79-3.39,18.75-2.88,3.21.43,4.97.69,5.28.77.82.22,2.46.95,4.9,2.17,12.74,6.58,17.12,18.97,13.16,37.19l-.42,1.55c-2.45,8.98-5.96,16.79-10.54,23.41-5.33,7.75-11.32,13.16-17.98,16.23-6.66,3.07-13.5,3.64-20.52,1.73-1.65-.45-3.31-1.07-4.98-1.86-8.02-3.52-13.56-9.24-16.62-17.17-1.11-2.85-1.82-4.32-2.13-4.41-.13.08-.19.2-.18.37,0,.17.04.54.11,1.11.1,1.25-.18,2.28-.84,3.1-.75,1.13-1.53,3.19-2.35,6.18l-1.81,6.66c-.49.98-1,3.67-1.53,8.07-.37,2.56-.66,4.26-.89,5.08-.23.83-.53,1.35-.93,1.58-.86.32-2.52,4.58-4.98,12.78-1.09,3.59-2.5,7.36-4.25,11.32-.08.31-.26.76-.53,1.35-.27.59-.5,1.11-.68,1.56-.18.45-.31.83-.39,1.14s-.14.6-.15.87c-.02.27-.06.51-.11.72-.23.83-.7,1.64-1.41,2.44s-1.34,1.13-1.85.99c-.52-.14-1.53.14-3.05.83-2.78,1.24-6.39,1.25-10.83.05-.72-.2-2.09-.68-4.1-1.45-5.38-2.24-8.1-5.09-8.15-8.54-.01-3.22,1.85-12.69,5.58-28.42.79-2.89,1.11-4.91.98-6.05-.05-.23-.01-.56.1-.97.08-.31.33-.8.73-1.46.4-.67.66-1.21.77-1.62.14-.52.19-.89.14-1.13-.16-1.04.22-2.44,1.14-4.18.24-.49.51-1.25.79-2.28.2-.72.45-1.87.77-3.45.32-1.58.59-2.78.82-3.6.39-1.44.78-2.45,1.15-3.01,1.15-1.79,2.8-6.22,4.95-13.29,2.17-7.17,3.46-10.87,3.85-11.09.52-.3,1.28-2.26,2.26-5.87,2.1-7.3,3.97-12.34,5.61-15.11.86-1.54,1.41-2.72,1.63-3.55.42-1.55,1.4-4.03,2.94-7.43,1.54-3.41,2.48-5.56,2.84-6.46,1.12-2.91,2.07-4.76,2.84-5.55.64-.71,1.13-1.69,1.46-2.93.34-1.24,1.41-2.94,3.22-5.11,1.23-1.66,2.31-2.7,3.26-3.1.94-.41,2.71-.7,5.31-.88ZM708.87,148.09c-1.46-1.17-2.55-1.86-3.27-2.05-1.96-.53-5.21-.03-9.73,1.51-2.96,1.08-7.28,3.4-12.96,6.95-5.68,3.55-8.66,5.85-8.94,6.88-.08.31-.77,1.18-2.04,2.6-1.51,1.48-3.41,3.56-5.7,6.27-2.29,2.7-3.49,4.26-3.6,4.67-.17.62-.45,1.04-.84,1.27-.53.3-1.21,1.17-2.04,2.6-.51.64-.84,1.27-1.01,1.89-.2.72-.13,1.91.2,3.55.49,2.69,1.52,6.21,3.11,10.58,1.58,4.37,3.12,7.87,4.63,10.49,3.15,5.52,6.75,8.82,10.77,9.92,1.75.48,3.45.55,5.1.22,1.41-.28,3.16-1.02,5.26-2.23,2.1-1.2,3.24-2.11,3.41-2.73.14-.52.28-.81.41-.89,1.1-.37,4.34-3.92,9.72-10.66,4.59-5.85,8.16-13.47,10.72-22.86l.34-1.24c1.73-7.18,2.25-11.53,1.56-13.05-.23-.39-.23-1,0-1.83.31-1.13-.17-3.15-1.43-6.05-1.27-2.89-2.48-4.83-3.65-5.82Z"/>
      <path class="cls-14" d="M837.55,82.94c1.69-.39,3.12-.58,4.29-.58,1.3,0,2.73.2,4.29.58,2.34.65,4.88,1.24,7.61,1.76,5.07,1.17,9.75,3.77,14.04,7.8,4.29,4.03,6.44,7.61,6.44,10.73,0,1.43-.58,2.54-1.76,3.32-1.17.78-2.41,1.17-3.71,1.17-2.6,0-5.2-1.23-7.8-3.71-3.64-3.25-7.22-5.59-10.73-7.02-2.34-1.04-3.64-1.56-3.9-1.56-.52,0-1.3.33-2.34.98-1.3.91-2.47,1.37-3.51,1.37-.65,0-2.18,1.2-4.58,3.61-2.41,2.41-4.33,4.65-5.75,6.73-1.43,2.21-2.28,4.42-2.54,6.63-.26,2.73-.65,4.36-1.17,4.88-1.17,1.43-1.95,8.52-2.34,21.26-.13,2.08-.19,4.55-.19,7.41,0,3.64.58,7.15,1.75,10.53,1.3,3.51,1.95,5.92,1.95,7.22,0,1.95,1.3,5.14,3.9,9.56,2.34,4.29,5.66,10.73,9.95,19.31,3.25,6.37,5.2,9.56,5.85,9.56.91,0,2.79-.78,5.66-2.34,1.3-.65,4.78-2.27,10.44-4.88,5.66-2.6,9.2-4.29,10.63-5.07,3.25-1.95,9.17-3.83,17.75-5.66,2.34-.52,4.1-.98,5.27-1.37,1.69-.65,3.58-.98,5.66-.98,2.73,0,4.1.52,4.1,1.56,0,.39-.46.98-1.37,1.76-2.34,2.08-10.27,4.68-23.8,7.8-4.29,1.04-6.5,1.69-6.63,1.95-.26.52-1.69,1.24-4.29,2.15-3.9,1.43-8.46,3.38-13.65,5.85-5.2,2.47-7.8,3.97-7.8,4.49,0,.26.78,2.86,2.34,7.8,1.82,5.33,2.73,10.02,2.73,14.04,0,1.04-.13,3.25-.39,6.63-1.3,13-7.09,22.82-17.36,29.45-4.68,2.99-10.73,4.49-18.14,4.49h-2.93c-8.06-.39-13.98-3.12-17.75-8.19-1.3-1.82-1.95-3.9-1.95-6.24v-2.54c.26-4.16.84-7.15,1.75-8.97,4.42-9.62,11.96-18.34,22.63-26.14l5.85-4.1-2.15-2.54c-.91-1.3-2.24-3.32-4-6.05-1.76-2.73-3.68-5.33-5.75-7.8-3.51-4.42-5.92-8-7.22-10.73-1.3-2.6-2.6-4.68-3.9-6.24-3.51-3.77-6.05-8.06-7.61-12.87-.52-1.56-1.37-3.51-2.54-5.85-1.43-2.6-3.19-7.64-5.27-15.12-2.08-7.48-3.12-12.32-3.12-14.53.13-3.64.97-8.32,2.54-14.04,1.56-5.72,2.93-8.84,4.1-9.36.91-.52,1.37-1.3,1.37-2.34,0-1.56,3.12-5.66,9.36-12.29,6.11-6.63,14.69-10.53,25.75-11.7,4.03-.39,7.34-.91,9.95-1.56ZM835.21,239.96c-.52-4.81-1.75-9.23-3.71-13.26l-2.93-6.24-5.46,5.07c-6.89,6.37-11.64,12.09-14.24,17.16-1.69,3.64-2.54,7.22-2.54,10.73,0,1.17.06,1.95.2,2.34.65,2.6,2.08,4.85,4.29,6.73,2.21,1.88,4.49,2.83,6.83,2.83,2.73,0,5.59-1.27,8.58-3.8,2.99-2.54,5.46-5.82,7.41-9.85,1.3-2.73,1.95-4.94,1.95-6.63,0-.26-.13-1.95-.39-5.07Z"/>
      <path class="cls-6" d="M992.86,115.16c0-4.74,3.86-7.11,11.58-7.11,2.87,0,5.49.47,7.86,1.41,2.37.94,3.83,2.12,4.38,3.56.66,1.55,1.16,3.39,1.49,5.54s.63,4.66.91,7.53c.27,2.87.52,4.96.75,6.29.22,1.99.33,4.25.33,6.78v2.98c0,3.09.17,5.71.5,7.86s.5,5.21.5,9.18c0,5.74.27,9.43.83,11.09.44,1.1.5,2.1.17,2.98-.22.66-.33,1.99-.33,3.97v2.15c.77,12.91,1.16,27.58,1.16,44.01,0,7.5-.39,11.86-1.16,13.07-.77,1.1-1.16,3.14-1.16,6.12,0,2.54-.22,6.56-.66,12.08-.55,5.18-1.21,8.22-1.99,9.1-.77.88-2.32,1.65-4.63,2.32-2.32.66-4.52.99-6.62.99-.11,0-.33-.03-.66-.08-.33-.06-.61-.08-.83-.08-1.99-.22-3.64-1.16-4.96-2.81-1.1-1.55-1.88-3.09-2.32-4.63-1.1-6.73-1.82-12.13-2.15-16.21-.22-1.99-.55-3.31-.99-3.97-.44-.77-.88-2.81-1.32-6.12-.99-8.82-1.82-13.95-2.48-15.39-.55-1.43-.83-8.6-.83-21.51v-1.99l-1.32,1.65c-.88,1.32-1.32,2.32-1.32,2.98,0,.99-.17,1.65-.5,1.99-.33.44-.97,2.1-1.9,4.96-.94,2.87-1.41,4.63-1.41,5.29,0,.44-1.19,3.31-3.56,8.6-2.37,5.29-4.22,9.16-5.54,11.58-1.77,3.42-4.63,7.11-8.6,11.09-4.41,4.41-10.48,6.62-18.2,6.62-3.42,0-6.73-.77-9.93-2.32-2.76-1.32-4.61-2.45-5.54-3.39-.94-.94-2.35-2.9-4.22-5.87-3.42-5.29-5.35-9.27-5.79-11.91-.11-.99-.55-2.32-1.32-3.97-.77-1.65-1.22-3.2-1.32-4.63-.22-2.43-.55-3.86-.99-4.3-.44-.55-.55-1.38-.33-2.48.33-.99.11-2.15-.66-3.47-.66-1.1-1.1-3.36-1.32-6.78-.22-3.42-.5-5.4-.83-5.96-.55-1.1-.83-6.56-.83-16.38v-2.81c0-4.96.44-11.25,1.32-18.86,2.21-14.67,3.91-23.77,5.13-27.3,1.1-3.53,1.65-5.57,1.65-6.12,0-.88.55-2.26,1.66-4.14,1.32-2.09,2.87-3.47,4.63-4.14,1.21-.44,2.54-.66,3.97-.66,2.09,0,3.69.44,4.8,1.32.88,1.1,1.32,3.75,1.32,7.94v1.82c-.11,1.88-.17,7.28-.17,16.21,0,24.38.17,39.54.5,45.5.55,4.74,1.87,13.9,3.97,27.47,1.1,6.73,2.54,11.2,4.3,13.4.11.22.3.86.58,1.9.27,1.05.58,2.01.91,2.9.33.88.66,1.38.99,1.49.55.22,1.27-.05,2.15-.83.88-.77,1.32-1.43,1.32-1.99,0-.66.38-1.27,1.16-1.82.77-.55,1.32-1.27,1.65-2.15.88-2.09,2.42-4.63,4.63-7.61.77-.99,1.16-1.87,1.16-2.65,0-.44.44-1.32,1.32-2.65.88-1.32,1.32-2.09,1.32-2.32s.44-1.32,1.32-3.31c3.42-7.39,5.29-12.13,5.63-14.23.11-1.1.55-2.54,1.32-4.3.88-2.09,2.45-6.89,4.72-14.39,2.26-7.5,3.89-13.4,4.88-17.7.11-.22.63-2.29,1.57-6.2.94-3.91,1.68-7.03,2.23-9.35,4.08-16.32,6.12-25.26,6.12-26.8Z"/>
      <path class="cls-8" d="M1099.36,156.48c0,.52.39,1.24,1.17,2.15.78.91,1.17,1.56,1.17,1.95,0,.78.68,2.11,2.05,4,1.37,1.89,2.31,2.83,2.83,2.83.39,0,2.11-2.31,5.17-6.92,3.05-4.61,5.23-8.16,6.53-10.63,1.3-2.99,4.29-7.73,8.97-14.24,7.15-10.66,11.64-17.36,13.46-20.09,4.94-7.54,8.12-12.61,9.56-15.21,1.43-2.73,2.86-4.29,4.29-4.68.78-.26,2.21-.39,4.29-.39,3.38,0,6.44.52,9.17,1.56,2.34,1.04,3.83,2.54,4.49,4.49,1.56,4.68,2.6,10.37,3.12,17.07.52,6.7.91,19.41,1.17,38.13,0,4.29.2,12.94.58,25.94.39,13,.58,21.98.58,26.92,0,1.04-.03,2.31-.1,3.8-.07,1.5-.1,2.51-.1,3.02v1.76c0,2.6.26,5.85.78,9.75.39,2.34.58,4.23.58,5.66,0,1.04-.13,1.82-.39,2.34-.52.91-.75,2.02-.68,3.32.06,1.3.29,2.08.68,2.34.65.39.98,7.48.98,21.26v28.28c0,11.57-.98,18.92-2.93,22.04-1.17,1.95-2.73,3.25-4.68,3.9-1.95.65-5.2.98-9.75.98-5.07,0-8.32-.52-9.75-1.56-1.43-1.04-2.96-2.8-4.58-5.27-1.63-2.47-2.44-4.23-2.44-5.27,0-.39-.23-3.22-.68-8.48-.46-5.27-.68-8.62-.68-10.05,0-2.21-.07-3.38-.2-3.51-.52-1.17-.98-11.83-1.37-31.99,0-.52.03-1.59.1-3.22.06-1.62.1-2.76.1-3.41v-21.46c0-15.34.29-31.47.88-48.37.58-16.9,1.27-27.05,2.05-30.43.91-4.29,1.37-9.88,1.37-16.77l-.2-1.37c-.26,0-1.82,2.24-4.68,6.73-2.86,4.49-4.62,7.38-5.27,8.68-.26.65-2.54,4.65-6.83,12-4.29,7.35-6.57,11.28-6.83,11.8-.26.52-1.69,2.86-4.29,7.02-4.03,5.98-8.58,8.97-13.65,8.97-2.21,0-4.29-.45-6.24-1.37-1.95-.78-3.32-1.56-4.1-2.34s-1.63-2.15-2.54-4.1c-1.17-2.21-2.21-4.1-3.12-5.66-1.17-1.82-1.76-2.99-1.76-3.51,0-.26-1.04-2.21-3.12-5.85-1.69-2.6-3.06-5.14-4.1-7.61-.13-.39-.42-1.07-.88-2.05-.46-.98-1.01-2.15-1.66-3.51-.65-1.37-1.17-2.5-1.56-3.41-1.56-3.38-2.6-5.07-3.12-5.07-.13,0-.26.13-.39.39-.13.39-.23.81-.29,1.27-.07.46-.03.75.1.88.13.26.36,2.76.68,7.51.32,4.75.49,8.16.49,10.24v22.63c0,8.19.06,13.07.19,14.63v2.73c0,1.3-.1,2.63-.29,4s-.29,2.51-.29,3.41c0,.52.13,1.95.39,4.29.13.91.19,2.08.19,3.51s-.13,2.41-.39,2.93c-.39.52-.58,3.9-.58,10.14v4.88c0,4.55-.13,9.95-.39,16.19-.52,7.8-1.3,12.55-2.34,14.24-2.34,3.77-6.24,5.66-11.7,5.66-6.24,0-10.27-1.92-12.09-5.75-1.82-3.83-3.06-12.71-3.71-26.62-.13-2.34-.36-5.95-.68-10.83-.33-4.88-.49-8.61-.49-11.22,0-.39.03-1.1.1-2.15.06-1.04.1-1.88.1-2.54s-.13-3.71-.39-9.17c-.26-7.8-.39-14.3-.39-19.51,0-11.96.32-21.46.97-28.48.39-3.12.59-5.98.59-8.58,0-1.17.16-3.51.49-7.02.32-3.51.71-7.22,1.17-11.12.45-3.9.75-6.24.88-7.02.91-11.44,3.58-18.85,8-22.24,1.43-1.04,3.64-1.56,6.63-1.56,2.73,0,4.61.13,5.66.39.65.26,2.05,1.92,4.19,4.97,2.15,3.06,3.22,4.91,3.22,5.56,0,.52.26.78.78.78s.78.26.78.78c0,.26,1.46,3.45,4.39,9.56,2.93,6.11,5.04,10.34,6.34,12.68.39.52,2.21,4.16,5.46,10.92,3.25,6.76,5.59,11.31,7.02,13.65,1.17,1.82,1.75,3.19,1.75,4.1Z"/>
      <path class="cls-11" d="M1242.65,160.77c0,.4.29.94.87,1.63.58.69.87,1.18.87,1.48,0,.59.51,1.6,1.53,3.03,1.02,1.43,1.72,2.15,2.11,2.15.29,0,1.57-1.75,3.85-5.25,2.28-3.5,3.9-6.19,4.87-8.06.97-2.27,3.2-5.87,6.69-10.8,5.33-8.09,8.67-13.17,10.03-15.24,3.68-5.72,6.06-9.56,7.12-11.54,1.07-2.07,2.13-3.25,3.2-3.55.58-.2,1.65-.3,3.2-.3,2.52,0,4.8.4,6.83,1.18,1.74.79,2.86,1.92,3.34,3.4,1.16,3.55,1.94,7.87,2.33,12.94.39,5.08.68,14.72.87,28.92,0,3.25.15,9.81.44,19.68.29,9.86.44,16.67.44,20.42,0,.79-.03,1.75-.07,2.88-.05,1.13-.07,1.9-.07,2.29v1.33c0,1.97.19,4.44.58,7.4.29,1.78.44,3.21.44,4.29,0,.79-.1,1.38-.29,1.77-.39.69-.56,1.53-.51,2.52.05.99.22,1.58.51,1.78.48.3.73,5.67.73,16.12v21.45c0,8.78-.73,14.35-2.18,16.72-.87,1.48-2.04,2.46-3.49,2.96-1.45.49-3.88.74-7.27.74-3.78,0-6.21-.4-7.27-1.18-1.07-.79-2.21-2.12-3.42-3.99-1.21-1.87-1.82-3.21-1.82-3.99,0-.3-.17-2.44-.51-6.44-.34-3.99-.51-6.53-.51-7.62,0-1.68-.05-2.57-.15-2.66-.39-.89-.73-8.98-1.02-24.26,0-.39.02-1.21.07-2.44.05-1.23.07-2.09.07-2.59v-16.27c0-11.64.22-23.87.65-36.69.44-12.82.94-20.51,1.53-23.08.68-3.25,1.02-7.49,1.02-12.72l-.15-1.04c-.2,0-1.36,1.7-3.49,5.1-2.13,3.4-3.44,5.6-3.93,6.58-.2.49-1.89,3.53-5.09,9.1-3.2,5.57-4.9,8.56-5.09,8.95-.2.4-1.26,2.17-3.2,5.33-3.01,4.54-6.4,6.81-10.18,6.81-1.65,0-3.2-.34-4.65-1.04-1.45-.59-2.47-1.18-3.05-1.78s-1.21-1.63-1.89-3.11c-.87-1.68-1.65-3.11-2.33-4.29-.87-1.38-1.31-2.27-1.31-2.66,0-.2-.78-1.68-2.33-4.44-1.26-1.97-2.28-3.9-3.05-5.77-.1-.3-.32-.81-.65-1.55-.34-.74-.75-1.63-1.24-2.66-.49-1.04-.87-1.9-1.16-2.59-1.16-2.56-1.94-3.85-2.33-3.85-.1,0-.2.1-.29.3-.1.3-.17.62-.22.96-.05.35-.03.57.07.67.1.2.27,2.1.51,5.7.24,3.6.36,6.19.36,7.77v17.16c0,6.21.05,9.91.15,11.1v2.07c0,.99-.07,2-.22,3.03s-.22,1.9-.22,2.59c0,.4.1,1.48.29,3.25.09.69.15,1.58.15,2.66s-.1,1.83-.29,2.22c-.29.4-.44,2.96-.44,7.69v3.7c0,3.45-.1,7.54-.29,12.28-.39,5.92-.97,9.52-1.74,10.8-1.75,2.86-4.65,4.29-8.72,4.29-4.65,0-7.66-1.46-9.01-4.36-1.36-2.91-2.28-9.64-2.76-20.19-.1-1.77-.27-4.51-.51-8.21-.24-3.7-.36-6.53-.36-8.51,0-.3.02-.84.07-1.63.05-.79.07-1.43.07-1.92s-.1-2.81-.29-6.95c-.2-5.92-.29-10.85-.29-14.79,0-9.07.24-16.27.73-21.6.29-2.37.44-4.54.44-6.51,0-.89.12-2.66.36-5.33.24-2.66.53-5.47.87-8.43.34-2.96.56-4.73.65-5.33.68-8.68,2.67-14.3,5.96-16.86,1.07-.79,2.71-1.18,4.94-1.18,2.04,0,3.44.1,4.22.3.48.2,1.53,1.46,3.13,3.77,1.6,2.32,2.4,3.72,2.4,4.22,0,.4.19.59.58.59s.58.2.58.59c0,.2,1.09,2.61,3.27,7.25,2.18,4.64,3.76,7.84,4.73,9.62.29.4,1.65,3.16,4.07,8.28,2.42,5.13,4.17,8.58,5.24,10.36.87,1.38,1.31,2.42,1.31,3.11Z"/>
      <path class="cls-9" d="M1367.88,119.51c3.93.59,8.17,1.34,12.72,2.24,13.64,2.71,22.54,4.77,26.7,6.18,3.88,1.35,5.72,2.54,5.51,3.56-.06.28-.25.53-.58.75-.78.52-4.76.16-11.94-1.07-25.09-3.83-37.97-5.53-38.63-5.08-.11.08-.04.67.22,1.78.18,1,.16,2.47-.08,4.4-.24,1.93-.56,4.25-.95,6.97-.4,2.72-.65,4.36-.76,4.91-.72,5.07-1.65,10.48-2.79,16.23l-2.3,11.55,5.62.83c8.61,1.33,14.92,2.34,18.93,3.04,2.89.48,6.06,1.06,9.49,1.74,2.78.55,4.65,1.12,5.6,1.69,1.26.93,1.84,1.67,1.73,2.22-.31,1.58-5.28,1.8-14.89.66-17.81-2.1-26.89-3.03-27.22-2.81-.78.52-1.97,4.82-3.58,12.89-.09.47-.19,1.07-.29,1.82-.1.75-.18,1.27-.24,1.54-.87,4.36-3.18,14.56-6.95,30.59l-1.11,4.84,3.17.78,2.78.55c2.41.48,8.09,1.51,17.04,3.1,4.03.61,8.22,1.35,12.58,2.21,3.43.68,5.8,1.4,7.1,2.14,3.08,1.48,4.5,2.83,4.26,4.03-.07.37-.53.71-1.36,1.03-1.95.58-4.53.69-7.74.34-3.21-.35-9.79-1.47-19.74-3.35-12.99-2.58-19.65-3.76-19.99-3.54-.21.05-.57,1.43-1.11,4.12-.35,1.76-.67,2.88-.96,3.35-.29.47-.92,1-1.9,1.57-2.73,1.58-5.95,2-9.66,1.26-.74-.15-1.84-.46-3.29-.94-2.62-.91-4.34-1.8-5.18-2.69s-1.28-2.55-1.33-4.97c-.05-2.42.47-6.37,1.56-11.84.96-4.82,1.8-8.8,2.52-11.94,3.25-15.36,5.04-23.88,5.37-25.55.17-.83.39-2.09.68-3.77.28-1.68.5-2.89.65-3.63.96-4.82,2.42-11.45,4.39-19.89,1.97-8.43,3.22-13.76,3.75-15.96,1.4-6.09,2.43-9.79,3.08-11.11.17-.35.42-1.36.75-3.03.26-1.3.86-3.35,1.8-6.15.94-2.8,1.59-4.36,1.94-4.68.2-.05.62-.69,1.25-1.92.37-.89,1.09-1.61,2.17-2.17,2.3-.89,9.36-.5,21.18,1.17Z"/>
      <path class="cls-7" d="M1430.48,134.35c.29-1.13,1.24-3.54,2.85-7.22,1.61-3.68,2.46-5.71,2.56-6.09.35-1.38,1.49-4.28,3.42-8.69,1.93-4.41,2.96-6.86,3.09-7.37,1.57-4.56,3.01-7.35,4.34-8.35.7-.63,1.05-1.48,1.05-2.55,0-1.07.55-2.41,1.63-4.01,2.63-3.49,4.53-5.65,5.68-6.5,1.15-.84,2.96-1.36,5.42-1.54.98-.15,2.41.01,4.3.49,4.66,1.19,7.82,2.73,9.49,4.63,3.11,3.61,2.78,12.79-.98,27.53l-.58,2.27c-1.38,5.42-1.63,8.24-.75,8.46.25.06,1.1-.66,2.56-2.16,1.62-1.6,4.92-3.91,9.92-6.93,5-3.02,8.96-5.03,11.9-6.02,10.68-3.98,19.92-4.98,27.74-2.99,2.77.71,5.57,1.82,8.4,3.35,7.36,3.76,12.3,9.78,14.82,18.07,2.51,8.29,2.36,17.98-.47,29.07-.9,3.53-2.41,7.87-4.53,13.04-2.12,5.16-3.72,8.55-4.8,10.15l-2.67,4.15c-3.34,5.72-7.99,11.05-13.94,15.97-4.4,3.58-10.59,6.02-18.58,7.34-3.5.58-8.28.1-14.33-1.44-5.92-1.51-8.92-2.14-8.98-1.89-.06.25.17.92.7,1.99.53,1.08.73,1.87.6,2.37-.13.5.53,2.12,1.99,4.83,1.45,2.72,2.13,4.27,2.04,4.65-.13.51.18,1.39.93,2.65.56.95,1.22,3.13,1.96,6.54s1.27,5.56,1.58,6.44c.53,1.08.98,3.14,1.34,6.18.36,3.05.81,5.11,1.34,6.18.78,1.68,1.09,2.83.93,3.46-.19.76-.06,1.53.41,2.32.5,1.2,1.87,5.41,4.13,12.63,2.25,7.22,3.61,12.02,4.07,14.42.87,3.44,1.39,5.32,1.58,5.64.4,1.04.51,1.94.32,2.7-.48,1.89-1.86,3.08-4.13,3.58-1.7.37-4.01.19-6.9-.55-4.03-1.03-7.09-2.48-9.16-4.35-3.05-2.79-6.38-8.41-10-16.84-5.4-13.05-8.29-20.36-8.69-21.95-.28-1.55-1.6-4.53-3.96-8.96-2.36-4.43-3.73-7.22-4.1-8.39-.16-.44-.9-2.41-2.22-5.9-1.32-3.49-2.08-5.93-2.26-7.32l-.47-1.33c-.13-.03-.54.8-1.24,2.5-.83,1.67-1.85,4.36-3.07,8.08-.19.76-1.13,3.5-2.81,8.24-1.68,4.74-3.21,9.15-4.58,13.22-1.38,4.08-2.26,6.87-2.64,8.38-.42,1.64-.9,2.76-1.46,3.35-.55.59-1.89,1.36-4.01,2.3-5.03,2.34-10,2.89-14.91,1.63-1.64-.42-2.88-.8-3.73-1.15-4.82-1.63-8.03-3.39-9.63-5.27-1.6-1.89-2.25-4.73-1.95-8.55.71-11.22,4.27-29.37,10.67-54.45,1.86-7.31,3.21-12.06,4.04-14.27,1.66-4.94,3.38-10.61,5.14-17.01,1.67-6.02,3.09-10.28,4.27-12.8,1.18-2.52,2.94-7.84,5.28-15.96ZM1526.22,117.3c-1.79-1.39-3.32-2.26-4.58-2.58-2.27-.58-5.9-.03-10.89,1.65-3.06.96-6.72,2.68-10.98,5.15-4.25,2.47-7.68,4.85-10.28,7.14-8.33,6.87-15.73,15.11-22.21,24.73l-3,4.67.83,3.84c2.47,10.29,5.8,18.83,9.98,25.59,4.18,6.77,8.6,10.75,13.26,11.94,3.15.8,6.87.04,11.15-2.29,4.28-2.33,8.44-5.86,12.47-10.61.79-1.01,1.65-2.02,2.59-3.06.93-1.04,1.7-1.95,2.31-2.73.6-.78.98-1.22,1.14-1.32.57-.66.97-1.43,1.19-2.31.16-.63.62-1.38,1.38-2.26,2-2.04,4.75-8.11,8.27-18.22.35-.85.78-2.28,1.3-4.3,2.86-11.21,3.69-17.38,2.5-18.49-.44-.38-.53-1.07-.27-2.08.32-1.26-.27-3.69-1.76-7.29-1.5-3.6-2.97-5.99-4.41-7.16Z"/>
      <path class="cls-10" d="M1586.15,191.25c1.07-.05,1.97,0,2.68.13.79.15,1.64.43,2.55.84,1.35.66,2.83,1.31,4.44,1.93,2.96,1.29,5.52,3.4,7.68,6.35,2.16,2.94,3.06,5.37,2.71,7.27-.16.87-.64,1.48-1.45,1.82-.8.34-1.6.44-2.39.29-1.59-.3-3.03-1.34-4.34-3.14-1.85-2.39-3.77-4.22-5.74-5.5-1.31-.9-2.04-1.36-2.2-1.39-.32-.06-.83.05-1.54.33-.9.41-1.66.55-2.29.43-.4-.07-1.46.49-3.2,1.68-1.74,1.19-3.16,2.34-4.27,3.45-1.12,1.19-1.89,2.44-2.3,3.75-.47,1.63-.89,2.58-1.27,2.84-.88.74-2.15,4.97-3.84,12.69-.32,1.25-.63,2.75-.96,4.5-.41,2.22-.45,4.43-.12,6.62.39,2.29.52,3.83.37,4.62-.22,1.19.21,3.28,1.29,6.27.94,2.88,2.23,7.18,3.88,12.9,1.26,4.25,2.09,6.42,2.48,6.49.55.1,1.79-.16,3.71-.79.87-.25,3.17-.84,6.91-1.79,3.74-.94,6.09-1.57,7.05-1.89,2.2-.82,6.02-1.3,11.46-1.44,1.49-.05,2.61-.13,3.36-.24,1.1-.2,2.29-.19,3.56.05,1.67.31,2.44.78,2.32,1.42-.04.24-.39.54-1.03.92-1.66,1-6.79,1.69-15.39,2.06-2.73.15-4.16.29-4.26.44-.22.29-1.17.56-2.86.82-2.54.43-5.54,1.1-8.99,2.02-3.45.92-5.21,1.53-5.26,1.85-.03.16.15,1.83.54,5.02.5,3.46.53,6.41.07,8.87-.12.64-.45,1.97-.99,4-2.27,7.78-6.91,13.11-13.92,15.98-3.19,1.29-7.05,1.52-11.57.68l-1.78-.33c-4.87-1.15-8.17-3.49-9.89-7-.59-1.26-.75-2.6-.48-4.03l.29-1.55c.63-2.51,1.32-4.26,2.09-5.27,3.78-5.36,9.37-9.82,16.75-13.37l4.03-1.83-1.02-1.79c-.41-.89-.99-2.28-1.75-4.14-.76-1.86-1.64-3.67-2.62-5.41-1.64-3.09-2.7-5.55-3.18-7.36-.5-1.73-1.06-3.15-1.67-4.25-1.71-2.7-2.77-5.6-3.18-8.71-.14-1.01-.43-2.29-.88-3.85-.58-1.75-1.08-5.02-1.5-9.81-.42-4.79-.51-7.86-.25-9.21.49-2.2,1.54-4.96,3.14-8.27,1.6-3.31,2.79-5.06,3.56-5.24.61-.21.98-.64,1.1-1.27.18-.95,2.54-3.09,7.1-6.43,4.48-3.35,10.15-4.76,17.02-4.22,2.5.22,4.58.28,6.24.18ZM1566.93,286.7c.23-2.99-.02-5.83-.76-8.5l-1.08-4.14-3.9,2.47c-4.92,3.1-8.46,6.05-10.62,8.85-1.44,2.03-2.36,4.11-2.76,6.25-.13.71-.18,1.2-.15,1.45.1,1.66.72,3.19,1.85,4.59,1.13,1.4,2.41,2.23,3.84,2.5,1.67.31,3.55-.14,5.66-1.35,2.11-1.21,3.99-2.93,5.63-5.16,1.1-1.52,1.75-2.79,1.94-3.82.03-.16.14-1.2.34-3.14Z"/>
      <g>
        <g>
          <path class="cls-12" d="M1386.65,56.05c4.85,3.63,5.31,3.03,10.16,6.66s4.61,3.97,9.47,7.6,5.51,2.76,10.37,6.4"/>
          <path class="cls-12" d="M1392.52,48.5c4.42,4.22,3.54,5.14,7.95,9.35s3.37,5.31,7.8,9.53,5.53,3.05,9.95,7.27c2.23,2.14-.79,6.13-3.46,4.6,0,0-5.03-2.25-10.86-5.61-3.41-1.96-7.32-3.9-10.73-5.86-5.83-3.36-5.51-2.67-10.8-5.72-3.37-1.94-2.54-6.81-.59-10.18,2.2-3.94,6.31-5.04,9.52-1.9.68.33,1.23-1.48,1.23-1.48Z"/>
        </g>
        <g>
          <path class="cls-12" d="M1468.03,6.73c.86,6,3.35,5.64,4.21,11.64s.82,6.01,1.68,12.02c.86,6,.99,5.99,1.85,11.99"/>
          <path class="cls-12" d="M1475.83,5.56c.11,6.11-.34,6.12-.23,12.23.11,6.11,1.48,6.09,1.58,12.2s-2.24,6.15-2.15,12.27c.02,2.84-2.98,3.59-3.75.87,0,0-1.47-5.3-3.26-11.79-1.04-3.79-3.08-7.76-4.12-11.55-1.79-6.49-.07-6.32-1.69-12.22-1.03-3.76,1.69-6.17,5.44-7.21,4.36-1.27,10.13.78,10.16,5.3-.01.17-1.99-.11-1.99-.11Z"/>
        </g>
        <g>
          <path class="cls-12" d="M1561.59,30.13c-3.63,4.85-3.93,4.63-7.56,9.49-3.63,4.86-3.33,5.08-6.97,9.94s-3.85,4.7-7.48,9.56"/>
          <path class="cls-12" d="M1567.77,34.92c-4.36,4.31-4.75,3.92-9.1,8.23s-4.36,4.31-8.72,8.63-3.97,4.7-8.33,9.02c-1.26,1.27-4.19-1.04-3.31-2.6,0,0,2.11-5.12,5.31-11.06,1.87-3.48,4.67-6.94,6.54-10.41,3.21-5.95,1.81-5.99,4.72-11.39,1.85-3.44,7.25-4.2,10.69-2.35,4.16,2.15,4.6,7.84,1.25,11.07-.25.35.95.86.95.86Z"/>
        </g>
        <g>
          <path class="cls-12" d="M1610.28,112.7c-6,.86-6.29-1.14-12.29-.27s-5.65,3.31-11.66,4.17-6.05.57-12.05,1.43"/>
          <path class="cls-12" d="M1611.18,117.64c-6.12.03-6.11,2.73-12.23,2.75s-6.13-.63-12.25-.61-6.12,1.04-12.25,1.07c-2.21,0-2.66-4.88-.54-5.49,0,0,5.41-1.09,11.89-2.96,3.79-1.1,7.73-3.19,11.52-4.29,6.48-1.88,6.49.38,12.37-1.32,3.75-1.09,7.99-.85,9.08,2.9,1.36,4.42-2.48,7.67-7.08,7.63-.64-.19-.5.32-.5.32Z"/>
        </g>
      </g>
    </g>
  </g>
</svg>