<?xml version="1.0" encoding="UTF-8"?>
<svg id="_レイヤー_2" data-name="レイヤー 2" xmlns="http://www.w3.org/2000/svg" xmlns:xlink="http://www.w3.org/1999/xlink" viewBox="0 0 380.68 556.41">
  <defs>
    <style>
      .cls-1 {
        fill: none;
        stroke-linejoin: bevel;
      }

      .cls-1, .cls-2 {
        stroke: #000;
        stroke-linecap: round;
        stroke-width: 8px;
      }

      .cls-3 {
        fill: #f6ddb1;
      }

      .cls-4 {
        fill: url(#_名称未設定グラデーション_23-2);
      }

      .cls-5 {
        fill: url(#_名称未設定グラデーション_23-3);
      }

      .cls-6 {
        fill: #f7eccc;
      }

      .cls-2 {
        stroke-linejoin: round;
      }

      .cls-2, .cls-7 {
        fill: #fff;
      }

      .cls-8 {
        fill: url(#_名称未設定グラデーション_23);
      }
    </style>
    <linearGradient id="_名称未設定グラデーション_23" data-name="名称未設定グラデーション 23" x1="-95.11" y1="-292.06" x2="166.52" y2="-30.44" gradientTransform="translate(93.8 400.18) rotate(9.75)" gradientUnits="userSpaceOnUse">
      <stop offset=".18" stop-color="#ffe399"/>
      <stop offset=".29" stop-color="#f9deab"/>
      <stop offset=".36" stop-color="#f5dbba"/>
      <stop offset=".66" stop-color="#fe918b"/>
      <stop offset=".68" stop-color="#ff8d89"/>
    </linearGradient>
    <linearGradient id="_名称未設定グラデーション_23-2" data-name="名称未設定グラデーション 23" x1="285.68" y1="32.29" x2="368.52" y2="32.29" gradientTransform="matrix(1,0,0,1,0,0)" xlink:href="#_名称未設定グラデーション_23"/>
    <linearGradient id="_名称未設定グラデーション_23-3" data-name="名称未設定グラデーション 23" x1="327.1" y1="78.57" x2="380.68" y2="78.57" gradientTransform="matrix(1,0,0,1,0,0)" xlink:href="#_名称未設定グラデーション_23"/>
  </defs>
  <g id="_レイヤー_2-2" data-name="レイヤー 2">
    <g>
      <path class="cls-8" d="M219,414.67l-193.43-33.25c-16.75-2.88-27.99-18.79-25.12-35.54L39.49,118.77C49.74,59.12,106.41,19.07,166.06,29.32l38.07,6.54c59.65,10.25,99.7,66.92,89.45,126.58l-39.04,227.11c-2.88,16.75-18.79,27.99-35.54,25.12Z"/>
      <path class="cls-6" d="M99.34,556.05l-8.18-1.41c-13.44-2.31-22.47-15.08-20.16-28.53l22.85-132.96,56.87,9.78-22.85,132.96c-2.31,13.44-15.08,22.47-28.53,20.16Z"/>
      <path class="cls-7" d="M58.74,129.13s-.08-.01-.12-.02c-4.61-.86-7.66-5.3-6.79-9.92,10.17-54.43,57.85-73.08,59.87-73.85,4.39-1.66,9.3.55,10.96,4.94,1.66,4.38-.54,9.28-4.91,10.95-1.69.65-40.84,16.26-49.21,61.08-.85,4.57-5.22,7.6-9.79,6.82Z"/>
      <circle class="cls-7" cx="55.21" cy="149.63" r="8.5"/>
      <polygon class="cls-3" points="141.43 456.97 91.16 408.76 93.85 393.15 150.72 402.93 141.43 456.97"/>
      <path class="cls-1" d="M12.47,245.01c25.36,6,53.74-3.37,70.54-23.29"/>
      <path class="cls-1" d="M281.72,243.85c23.57-13,42.15-34.81,50.89-60.28"/>
      <g>
        <path class="cls-4" d="M343.21,43.49c25.47,4.68,29.97-16.33,21.22-29.86-8.75-13.53-23.25-19.71-44.99-5.64s-33.75,56.59-33.75,56.59c0,0,13.2-29.24,57.53-21.09Z"/>
        <path class="cls-5" d="M380.53,78.77c-1.31-9.18-7.39-15.91-22.15-13.8-14.76,2.11-31.29,21.43-31.29,21.43,0,0,13.95-12.09,35.14,2.86,12.18,8.59,19.6-1.3,18.29-10.48Z"/>
      </g>
      <path class="cls-2" d="M138.08,225.99c-1.06-7.65-2.1-15.56,0-22.99s8.18-14.31,15.89-14.79c8.09-.5,14.67,6.2,17.26,13.34,2.7,7.45,1.51,15.9-.49,23.36s-5.66,8.7-13.21,9.19c-6.03.39-18.33-.03-19.45-8.1Z"/>
      <path d="M115.7,150.89c.3-4.78,4.29-9.76,9.5-8.16,2.86.88,4.82,3.43,5.47,6.35.94,4.19-1.94,11.5-4.08,14.37-.42.57-1.03.99-1.71,1.17-2.08.54-3.99-.13-5.4-1.54-2.02-2.03-4.04-8.15-3.79-12.19Z"/>
      <path d="M202.75,160.94c.8-4.72-1.95-10.48-7.39-10.11-2.99.2-5.48,2.24-6.78,4.94-1.87,3.87-.73,11.64.69,14.92.28.65.77,1.2,1.4,1.53,1.9,1,3.92.78,5.61-.27,2.43-1.52,5.79-7.02,6.46-11.01Z"/>
    </g>
  </g>
</svg>