<?xml version="1.0" encoding="UTF-8"?>
<svg id="_レイヤー_2" data-name="レイヤー 2" xmlns="http://www.w3.org/2000/svg" xmlns:xlink="http://www.w3.org/1999/xlink" viewBox="0 0 351.5 530.42">
  <defs>
    <style>
      .cls-1 {
        fill: none;
        stroke: #000;
        stroke-linecap: round;
        stroke-linejoin: bevel;
        stroke-width: 8px;
      }

      .cls-2 {
        fill: #f6ddb1;
      }

      .cls-3 {
        fill: #f7eccc;
      }

      .cls-4 {
        fill: url(#_新規グラデーションスウォッチ_1);
      }

      .cls-5 {
        fill: #fff;
      }
    </style>
    <linearGradient id="_新規グラデーションスウォッチ_1" data-name="新規グラデーションスウォッチ 1" x1="47.35" y1="85.68" x2="308.98" y2="347.3" gradientUnits="userSpaceOnUse">
      <stop offset=".18" stop-color="#bef"/>
      <stop offset=".3" stop-color="#bdf2ec"/>
      <stop offset=".36" stop-color="#bff5e0"/>
      <stop offset=".61" stop-color="#c9fc96"/>
      <stop offset=".68" stop-color="#ccff81"/>
    </linearGradient>
  </defs>
  <g id="_レイヤー_2-2" data-name="レイヤー 2">
    <g>
      <path class="cls-4" d="M268.3,370.81H72.03c-17,0-30.77-13.78-30.77-30.77V109.6C41.25,49.07,90.32,0,150.85,0h38.63c60.53,0,109.6,49.07,109.6,109.6v230.44c0,17-13.78,30.77-30.77,30.77Z"/>
      <path class="cls-3" d="M174.31,530.42h-8.3c-13.64,0-24.7-11.06-24.7-24.7v-134.91h57.71v134.91c0,13.64-11.06,24.7-24.7,24.7Z"/>
      <path class="cls-5" d="M61.99,116.55s-.08,0-.13,0c-4.69-.07-8.44-3.93-8.38-8.62.8-55.36,44.63-81.82,46.5-82.92,4.04-2.38,9.26-1.04,11.64,3.01,2.38,4.04,1.04,9.24-2.99,11.63-1.55.93-37.49,22.95-38.15,68.54-.07,4.65-3.86,8.38-8.5,8.38Z"/>
      <circle class="cls-5" cx="61.98" cy="137.35" r="8.5"/>
      <polygon class="cls-2" points="199.02 425.64 141.31 386.64 141.31 370.81 199.02 370.81 199.02 425.64"/>
      <path class="cls-1" d="M99.8,150.91c13.54,26.98,44.37,44.23,74.44,41.66s57.53-24.81,66.29-53.7"/>
      <path d="M125.97,118.73c-.03-.72,0-1.45.11-2.17.5-3.42,3.07-6.71,6.5-7.1,3.31-.38,6.49,2.07,7.76,5.15,1.91,4.62.34,10.16-1.71,14.47-.33.69-.71,1.39-1.31,1.86-3.67,2.87-7.53-1.47-9.03-4.44-1.23-2.43-2.21-5.09-2.33-7.77Z"/>
      <path d="M213.57,118.73c.25-4.78-3.14-10.19-8.5-9.2-2.94.54-5.18,2.86-6.17,5.68-1.07,3.07-.77,6.43.14,9.49.72,2.4,1.82,6.26,4.67,6.86,1.68.36,3.37-.1,4.7-1.17,2.24-1.79,4.94-7.63,5.16-11.67Z"/>
      <path class="cls-1" d="M303.89,213.71c18.47,10.35,33.82,26.17,43.62,44.93"/>
      <path class="cls-1" d="M4,173.43c5.93,22.35,17.13,43.28,32.44,60.61"/>
    </g>
  </g>
</svg>